<svg data-v-0dd9719b="" version="1.0" xmlns="http://www.w3.org/2000/svg" xmlns:xlink="http://www.w3.org/1999/xlink" width="100%" height="100%" viewBox="0 0 340.000000 250.000000" preserveAspectRatio="xMidYMid meet" color-interpolation-filters="sRGB" style="margin: auto;"> <rect data-v-0dd9719b="" x="0" y="0" width="100%" height="100%" fill="#fff" fill-opacity="1" class="background"></rect> <rect data-v-0dd9719b="" x="0" y="0" width="100%" height="100%" fill="url(#watermark)" fill-opacity="1" class="watermarklayer"></rect> <g data-v-0dd9719b="" fill="#333" class="icon-text-wrapper icon-svg-group iconsvg" transform="translate(49.04999542236328,95.00389671437472)"><g class="iconsvg-imagesvg" transform="translate(0,0)"><g><rect fill="#333" fill-opacity="0" stroke-width="2" x="0" y="0" width="60" height="59.9922010138682" class="image-rect"></rect> <svg x="0" y="0" width="60" height="59.9922010138682" filtersec="colorsb468136819" class="image-svg-svg primary" style="overflow: visible;"><svg xmlns="http://www.w3.org/2000/svg" viewBox="-0.025064129382371902 0.02431926503777504 99.97372436523438 99.96115112304688"><path d="M92.11 7.56a14.27 14.27 0 0 0-24.36 10.7A17.91 17.91 0 0 1 49.27 35.5a14.42 14.42 0 0 0-13.77 15A17.89 17.89 0 0 1 17 67.72a14.29 14.29 0 1 0 14.9 14.93 17.87 17.87 0 0 1 17.7-18.48h.8a14.23 14.23 0 0 0 7-2.2 13.93 13.93 0 0 0 2.6-2.09 14.23 14.23 0 0 0 4.15-9.45A17.87 17.87 0 0 1 81.86 32h.5a2.8 2.8 0 0 0 .29 0 14.27 14.27 0 0 0 9.46-24.44z" fill="#004e9a"></path><path d="M75.59 43.5a14.22 14.22 0 0 0-4.15 10.7A17.93 17.93 0 0 1 53 71.44a14.28 14.28 0 1 0 14.91 14.9 17.86 17.86 0 0 1 17.65-18.46h.79A14.28 14.28 0 1 0 75.59 43.5zM36.28 4.19a14.22 14.22 0 0 0-4.15 10.7 17.91 17.91 0 0 1-18.48 17.23 14.29 14.29 0 1 0 14.89 14.93 17.87 17.87 0 0 1 17.7-18.48H47A14.28 14.28 0 1 0 36.28 4.19z" fill="#27b4d4"></path><path d="M20.9 20.91a9.91 9.91 0 1 1 0-14 9.9 9.9 0 0 1 0 14zM93.21 93.21a9.91 9.91 0 1 1 0-14 9.9 9.9 0 0 1 0 14z" fill="#004e9a"></path></svg></svg> <!----></g></g> <g transform="translate(67,2.7798519134521484)"><g data-gra="path-name" fill-rule="" class="tp-name iconsvg-namesvg" transform="translate(0,0)"><g transform="scale(1)"><g><path d="M39 0.26L39 0.26 6.01 0.26Q3.18 0.26 3.18-1.52L3.18-1.52Q3.18-3.31 6.01-3.31L6.01-3.31 39-3.31Q41.83-3.31 41.83-1.52L41.83-1.52Q41.83 0.26 39 0.26ZM33.34-14.54L33.34-14.54 11.27-14.54Q8.44-14.54 8.44-16.37L8.44-16.37Q8.44-18.15 11.27-18.15L11.27-18.15 33.34-18.15Q36.17-18.15 36.17-16.37L36.17-16.37Q36.17-14.54 33.34-14.54ZM36.7-28.51L36.7-28.51 8.49-28.51Q5.66-28.51 5.66-30.34L5.66-30.34Q5.66-32.13 8.49-32.13L8.49-32.13 36.7-32.13Q39.53-32.13 39.53-30.34L39.53-30.34Q39.53-28.51 36.7-28.51ZM85.28 0.83L85.28 0.83 49.97 0.83Q47.27 0.83 47.27-0.87L47.27-0.87Q47.27-2.52 49.97-2.52L49.97-2.52 59.29-2.52 59.29-30.25 51.32-30.25Q48.54-30.25 48.54-32L48.54-32Q48.54-33.74 51.32-33.74L51.32-33.74 84.19-33.74Q86.97-33.74 86.97-32L86.97-32Q86.97-30.25 84.19-30.25L84.19-30.25 75.57-30.25 75.57-2.52 85.28-2.52Q87.98-2.52 87.98-0.87L87.98-0.87Q87.98 0.83 85.28 0.83ZM65.21-2.52L69.65-2.52 69.65-30.25 65.21-30.25 65.21-2.52ZM78.79-9.19L78.79-9.19Q77.96-9.19 76.83-9.62L76.83-9.62Q75.35-10.19 75.35-10.67L75.35-10.67Q75.35-10.84 75.48-11.1L75.48-11.1Q78.27-16.89 80.01-22.29L80.01-22.29Q80.53-23.99 82.06-23.99L82.06-23.99Q82.62-23.99 83.32-23.77L83.32-23.77Q85.58-23.03 85.58-22.07L85.58-22.07Q85.58-21.9 85.54-21.77L85.54-21.77Q80.97-9.19 78.79-9.19ZM55.89-9.14L55.89-9.14Q54.11-9.14 53.72-10.58L53.72-10.58Q52.32-15.02 49.45-22.07L49.45-22.07 49.41-22.33Q49.41-23.03 50.89-23.59L50.89-23.59Q51.8-23.94 52.54-23.94L52.54-23.94Q55.02-23.94 59.29-11.1L59.29-11.1 59.38-10.8Q59.38-10.32 57.85-9.62L57.85-9.62Q56.76-9.14 55.89-9.14ZM120.32 3.18L120.32 3.18Q117.4 3.18 116.88 1.7L116.88 1.7 116.84 1.52Q116.84 1.26 117.19 1L117.19 1Q118.19 0.39 119.8 0.39L119.8 0.39 121.19 0.35Q121.58 0.35 121.63-0.17L121.63-0.17 121.63-7.18 111.66-7.18Q115.23-4.4 117.14-2.13L117.14-2.13Q117.45-1.78 117.45-1.61L117.45-1.61Q117.45-1.48 116.71-0.91L116.71-0.91Q115.53-0.04 114.44-0.04L114.44-0.04Q113.14-0.13 112.42-1.13 111.7-2.13 110.26-3.53L110.26-3.53Q109.48-4.27 109.48-4.88L109.48-4.88 109.48-5.22Q109.52-5.57 111.7-7.18L111.7-7.18 106.48-7.18Q104.08-7.18 104.08-8.58L104.08-8.58Q104.08-9.93 106.48-9.93L106.48-9.93 121.63-9.93 121.63-13.02 110.74-13.02Q108.87-13.02 108-13.89 107.13-14.76 107.13-15.58L107.13-15.58 107.13-23.42Q107.13-24.25 108-25.12 108.87-25.99 110.74-25.99L110.74-25.99 116.36-25.99 116.36-28.77 107.43-28.77Q105.04-28.77 105.04-30.12L105.04-30.12Q105.04-31.47 107.43-31.47L107.43-31.47 116.36-31.47 116.36-34.65Q116.36-36.3 119.06-36.3L119.06-36.3Q121.76-36.3 121.76-34.65L121.76-34.65 121.76-31.47 127.63-31.47Q125.33-33.08 123.37-34.08L123.37-34.08Q122.8-34.39 122.8-34.74L122.8-34.74Q122.8-34.91 122.93-35.09L122.93-35.09Q123.67-36.04 124.8-36.04L124.8-36.04Q125.5-36.04 126.33-35.7L126.33-35.7Q130.68-33.43 130.72-33L130.72-33Q130.72-32.74 130.42-32.39L130.42-32.39 129.5-31.47 130.72-31.47Q133.12-31.47 133.12-30.12L133.12-30.12Q133.12-28.77 130.72-28.77L130.72-28.77 121.76-28.77 121.76-25.99 127.85-25.99Q129.72-25.99 130.59-25.12 131.46-24.25 131.46-23.42L131.46-23.42 131.46-15.58Q131.46-14.76 130.59-13.89 129.72-13.02 127.85-13.02L127.85-13.02 127.07-13.02 127.07-9.93 131.07-9.93Q133.47-9.93 133.47-8.58L133.47-8.58Q133.47-7.18 131.07-7.18L131.07-7.18 127.07-7.18 127.07-0.48Q127.07 0.74 126.63 1.57L126.63 1.57Q125.89 3.05 120.32 3.18ZM99.95 3.13L99.95 3.13Q97.16 3.13 97.16 1.44L97.16 1.44 97.16-21.94 94.81-21.94Q92.2-21.94 92.2-23.55L92.2-23.55Q92.2-25.12 94.81-25.12L94.81-25.12 97.16-25.12 97.16-34.56Q97.16-36.26 99.95-36.26L99.95-36.26Q102.69-36.26 102.69-34.56L102.69-34.56 102.69-25.12 104.74-25.12Q107.35-25.12 107.35-23.55L107.35-23.55Q107.35-21.94 104.74-21.94L104.74-21.94 102.69-21.94 102.69 1.44Q102.69 3.13 99.95 3.13ZM112.57-15.28L116.36-15.28 116.36-18.54 112.31-18.54 112.31-16.59Q112.31-15.28 112.57-15.28L112.57-15.28ZM121.76-15.28L125.89-15.28Q126.15-15.28 126.15-16.59L126.15-16.59 126.15-18.54 121.76-18.54 121.76-15.28ZM112.31-20.55L116.36-20.55 116.36-23.77 112.57-23.77Q112.31-23.77 112.31-22.46L112.31-22.46 112.31-20.55ZM121.76-20.55L126.15-20.55 126.15-22.46Q126.15-23.77 125.89-23.77L125.89-23.77 121.76-23.77 121.76-20.55ZM151.18-4.44L151.18-4.44Q149.7-4.44 148.88-5.62L148.88-5.62Q148.7-5.88 148.7-6.14L148.7-6.14Q148.7-6.96 150.44-7.84L150.44-7.84Q153.23-9.58 154.36-12.89L154.36-12.89Q155.36-15.54 155.62-20.98L155.62-20.98 151.4-20.98Q148.83-20.98 148.83-22.55L148.83-22.55Q148.83-24.07 151.4-24.07L151.4-24.07 174.69-24.07Q177.26-24.07 177.26-22.55L177.26-22.55Q177.26-20.98 174.69-20.98L174.69-20.98 169.2-20.98Q169.2-8.1 169.38-7.92L169.38-7.92 169.51-7.75 172.16-8.27Q172.21-8.27 172.34-8.66L172.34-8.66Q172.56-12.15 174.73-12.15L174.73-12.15Q177.34-12.15 177.34-9.53L177.34-9.53 177.3-8.92Q176.95-6.79 176.17-5.92L176.17-5.92Q175.04-4.7 172.64-4.7L172.64-4.7 168.9-4.7Q165.68-4.7 164.79-5.79 163.89-6.88 163.89-9.32L163.89-9.32 163.89-20.98 161.15-20.98Q160.8-14.76 159.5-11.54L159.5-11.54Q157.84-7.49 153.71-5.09L153.71-5.09Q152.27-4.44 151.18-4.44ZM172.08-30.56L172.08-30.56 154.23-30.56Q151.66-30.56 151.66-32.08L151.66-32.08Q151.66-33.61 154.23-33.61L154.23-33.61 172.08-33.61Q174.65-33.61 174.65-32.08L174.65-32.08Q174.65-30.56 172.08-30.56ZM161.67 2.74L161.67 2.74Q157.06 2.74 154.27 2.22L154.27 2.22Q150.96 1.65 148.48 0.13L148.48 0.13 146.57-1.22Q145.13-2.31 145.04-2.31L145.04-2.31Q144.7-2.31 143.04-0.09L143.04-0.09Q141.65 2 139.56 2L139.56 2Q138.21 2 137.34 0.78L137.34 0.78Q137.04 0.39 137.04-0.04L137.04-0.04Q137.04-0.74 137.82-1.57L137.82-1.57Q140.3-4.14 142.35-5.01L142.35-5.01 142.35-17.02Q142.35-18.33 142.08-18.33L142.08-18.33 139.82-18.33Q137.08-18.33 137.08-20.07L137.08-20.07Q137.08-21.77 139.82-21.77L139.82-21.77 144.96-21.77Q146.57-21.77 147.24-21.09 147.92-20.42 147.92-19.85L147.92-19.85 147.92-4.7 149.22-3.83Q150.27-3.05 150.96-2.61L150.96-2.61Q153.84-0.74 161.8-0.74L161.8-0.74Q168.46-0.74 174.95-1.44L174.95-1.44Q175.69-1.52 176.26-1.52L176.26-1.52Q177.43-1.52 177.76-1.15 178.08-0.78 178.08-0.22L178.08-0.22Q178.08 0.04 178 0.39L178 0.39Q177.78 1.31 177.48 1.57L177.48 1.57Q176.43 2.74 161.67 2.74ZM144.87-26.42L144.87-26.42Q144.74-26.42 144.04-26.47 143.35-26.51 142.52-27.64L142.52-27.64Q141.3-29.34 138.78-32.04L138.78-32.04Q138.38-32.39 138.38-32.78L138.38-32.78Q138.38-33.21 139.04-33.69L139.04-33.69Q140.17-34.52 141.21-34.52L141.21-34.52Q142.39-34.52 143.43-33.48L143.43-33.48Q146-30.95 147.79-28.82L147.79-28.82Q148.14-28.43 148.14-28.34L148.14-28.34Q148.05-27.99 147.22-27.34L147.22-27.34Q146-26.42 144.87-26.42Z" transform="translate(-3.180000066757202, 36.29999923706055)"></path></g> <!----> <!----> <!----> <!----> <!----> <!----> <!----></g></g> <g data-gra="path-slogan" fill-rule="" class="tp-slogan iconsvg-slogansvg" fill="#333" transform="translate(41.01918029785156,45.47999954223633)"><!----> <!----> <g transform="scale(1, 1)"><g transform="scale(1)"><path d="M7.17-6.09L7.17-6.09L6.09-6.09Q6-7.73 3.94-7.83L3.94-7.83Q2.02-7.78 2.02-6.33L2.02-6.33Q2.02-5.39 3.05-5.25L3.05-5.25L5.48-4.69Q7.41-4.22 7.41-2.34L7.41-2.34Q7.36 0.05 4.03 0.14L4.03 0.14Q2.20 0.14 1.45-0.61L1.45-0.61Q0.52-1.31 0.56-2.77L0.56-2.77L1.69-2.77Q1.73-0.80 4.03-0.75L4.03-0.75Q6.28-0.80 6.33-2.20L6.33-2.20Q6.52-3.38 4.45-3.75L4.45-3.75L2.67-4.13Q0.84-4.64 0.84-6.19L0.84-6.19Q0.98-8.72 3.84-8.81L3.84-8.81Q7.08-8.81 7.17-6.09ZM14.53 0L13.69-2.48L10.22-2.48L9.33 0L8.16 0L11.39-8.58L12.70-8.58L15.80 0L14.53 0ZM11.95-7.31L10.59-3.52L13.27-3.52L12-7.31L11.95-7.31ZM18.23-8.58L22.55-1.64L22.55-8.58L23.67-8.58L23.67 0L22.36 0L18-6.94L17.95-6.94L17.95 0L16.83 0L16.83-8.58L18.23-8.58ZM32.39-8.58L29.16-3.47L29.16 0L27.98 0L27.98-3.47L24.75-8.58L26.11-8.58L28.55-4.45L31.03-8.58L32.39-8.58ZM39.09 0L38.25-2.48L34.78-2.48L33.89 0L32.72 0L35.95-8.58L37.27-8.58L40.36 0L39.09 0ZM36.52-7.31L35.16-3.52L37.83-3.52L36.56-7.31L36.52-7.31ZM47.95-7.64L45.89-7.64L45.89-4.97L47.95-4.97Q49.78-4.92 49.73-6.38L49.73-6.38Q49.73-7.64 47.95-7.64L47.95-7.64ZM48.42 0L44.72 0L44.72-8.58L48.52-8.58Q50.81-8.48 50.91-6.42L50.91-6.42Q50.91-5.16 49.78-4.64L49.78-4.64Q51.38-4.08 51.38-2.53L51.38-2.53Q51.23-0.09 48.42 0L48.42 0ZM48.14-3.98L45.89-3.98L45.89-0.98L48.38-0.98Q50.16-1.03 50.20-2.53L50.20-2.53Q50.20-3.98 48.14-3.98L48.14-3.98ZM59.48-4.27L59.48-4.27Q59.30-7.64 56.48-7.83L56.48-7.83Q53.63-7.69 53.48-4.27L53.48-4.27Q53.63-0.94 56.48-0.80L56.48-0.80Q59.30-0.98 59.48-4.27ZM60.66-4.27L60.66-4.27Q60.38 0 56.48 0.14L56.48 0.14Q52.55 0 52.27-4.27L52.27-4.27Q52.50-8.72 56.48-8.81L56.48-8.81Q60.38-8.67 60.66-4.27ZM68.95-8.58L65.72-3.47L65.72 0L64.55 0L64.55-3.47L61.31-8.58L62.67-8.58L65.11-4.45L67.59-8.58L68.95-8.58ZM75.66-3.19L75.66-8.58L76.83-8.58L76.83-3.05Q76.69 0.05 73.31 0.14L73.31 0.14Q70.17 0.05 70.03-2.86L70.03-2.86L70.03-8.58L71.20-8.58L71.20-3.19Q71.25-0.84 73.36-0.80L73.36-0.80Q75.66-0.84 75.66-3.19L75.66-3.19ZM84.28 0L83.44-2.48L79.97-2.48L79.08 0L77.91 0L81.14-8.58L82.45-8.58L85.55 0L84.28 0ZM81.70-7.31L80.34-3.52L83.02-3.52L81.75-7.31L81.70-7.31ZM87.98-8.58L92.30-1.64L92.30-8.58L93.42-8.58L93.42 0L92.11 0L87.75-6.94L87.70-6.94L87.70 0L86.58 0L86.58-8.58L87.98-8.58Z" transform="translate(-0.5602678571428572, 8.8125)"></path></g></g></g></g></g><defs v-gra="od"></defs></svg>